<svg width="36" height="36" viewBox="0 0 36 36" fill="none" xmlns="http://www.w3.org/2000/svg">
<path fill-rule="evenodd" clip-rule="evenodd" d="M18 36C27.9411 36 36 27.9411 36 18C36 8.05887 27.9411 0 18 0C8.05887 0 0 8.05887 0 18C0 27.9411 8.05887 36 18 36ZM22.4367 9.04677C21.2772 8.99396 20.9298 8.98262 17.9941 8.98262L17.9958 8.98087C15.0601 8.98087 14.7127 8.99222 13.5532 9.04502C12.4813 9.0939 11.8992 9.27283 11.5116 9.42339C11.0335 9.59944 10.601 9.88056 10.246 10.246C9.88056 10.601 9.59944 11.0335 9.42339 11.5116C9.27283 11.8992 9.0939 12.4813 9.04502 13.5532C8.99222 14.7127 8.98087 15.0601 8.98087 17.9958C8.98087 20.9316 8.99222 21.2789 9.04502 22.4385C9.0939 23.5103 9.27283 24.0925 9.42339 24.48C9.59944 24.9581 9.88056 25.3906 10.246 25.7456C10.601 26.1111 11.0335 26.3922 11.5116 26.5683C11.8992 26.7188 12.4813 26.8977 13.5532 26.9466C14.7123 26.9994 15.0601 27.0108 17.9958 27.0108C20.9316 27.0108 21.2794 26.9994 22.4385 26.9466C23.5103 26.8977 24.0925 26.7188 24.48 26.5683C24.9541 26.3852 25.3845 26.1049 25.7439 25.7456C26.1032 25.3863 26.3834 24.9558 26.5665 24.4818C26.7171 24.0942 26.896 23.5121 26.9449 22.4402C26.9977 21.2807 27.009 20.9333 27.009 17.9976C27.009 15.0618 26.9977 14.7144 26.9449 13.5549C26.896 12.4831 26.7171 11.9009 26.5665 11.5134C26.3905 11.0353 26.1093 10.6028 25.7439 10.2478C25.3889 9.8823 24.9564 9.60118 24.4783 9.42514C24.0907 9.27458 23.5086 9.09565 22.4367 9.04677ZM13.4628 7.06633C14.6355 7.01266 15.0099 7 17.9958 7L17.9941 7.00175C20.98 7.00175 21.3571 7.01484 22.5271 7.06808C23.6971 7.12132 24.4962 7.30723 25.1957 7.5813C25.9291 7.85667 26.5936 8.28856 27.143 8.84689C27.7021 9.3962 28.1349 10.0607 28.4112 10.7942C28.6827 11.4937 28.869 12.2902 28.9223 13.4628C28.9755 14.6355 28.9882 15.0099 28.9882 17.9958C28.9882 20.9818 28.9759 21.3588 28.9223 22.5288C28.8686 23.6988 28.6827 24.4992 28.4112 25.1975C28.1287 25.9278 27.6967 26.5911 27.143 27.1448C26.5893 27.6985 25.9261 28.1304 25.1957 28.413C24.4962 28.6844 23.6997 28.8708 22.5271 28.924C21.3544 28.9772 20.98 28.9899 17.9941 28.9899C15.0082 28.9899 14.6311 28.9777 13.4611 28.924C12.2911 28.8703 11.4907 28.6844 10.7924 28.413C10.0589 28.1366 9.39446 27.7039 8.84515 27.1448C8.28602 26.5955 7.85338 25.931 7.57737 25.1975C7.30549 24.4979 7.12001 23.7015 7.06633 22.5288C7.01266 21.3562 7 20.9818 7 17.9958C7 15.0099 7.01309 14.6328 7.06633 13.4628C7.11958 12.2928 7.30549 11.4937 7.57955 10.7942C7.85492 10.0608 8.28681 9.39632 8.84515 8.84689C9.39436 8.28777 10.0589 7.85513 10.7924 7.57912C11.492 7.30723 12.2902 7.12001 13.4628 7.06633ZM17.994 12.3504C16.8773 12.3504 15.7857 12.6815 14.8573 13.3019C13.9288 13.9223 13.2052 14.8041 12.7779 15.8357C12.3505 16.8674 12.2388 18.0026 12.4566 19.0978C12.6745 20.193 13.2123 21.199 14.0019 21.9886C14.7915 22.7782 15.7976 23.3158 16.8928 23.5336C17.988 23.7514 19.1232 23.6396 20.1549 23.2122C21.1865 22.7848 22.0682 22.0611 22.6886 21.1326C23.3089 20.2041 23.6399 19.1124 23.6398 17.9958C23.6399 17.2544 23.4939 16.5202 23.2102 15.8352C22.9265 15.1502 22.5106 14.5278 21.9863 14.0036C21.462 13.4793 20.8396 13.0635 20.1546 12.7799C19.4696 12.4962 18.7354 12.3503 17.994 12.3504ZM17.994 21.6603C17.2689 21.6603 16.5602 21.4453 15.9573 21.0425C15.3545 20.6397 14.8846 20.0672 14.6072 19.3973C14.3297 18.7275 14.2571 17.9904 14.3986 17.2793C14.54 16.5682 14.8892 15.915 15.4018 15.4023C15.9145 14.8896 16.5677 14.5405 17.2788 14.3991C17.9899 14.2576 18.727 14.3302 19.3968 14.6077C20.0667 14.8851 20.6392 15.355 21.042 15.9578C21.4448 16.5607 21.6598 17.2694 21.6598 17.9945C21.6598 18.9667 21.2736 19.8991 20.5861 20.5866C19.8987 21.2741 18.9662 21.6603 17.994 21.6603ZM25.1822 12.127C25.1822 12.8556 24.5916 13.4463 23.863 13.4463C23.1343 13.4463 22.5437 12.8556 22.5437 12.127C22.5437 11.3984 23.1343 10.8077 23.863 10.8077C24.5916 10.8077 25.1822 11.3984 25.1822 12.127Z" fill="#FAF2F0"/>
</svg>
