<svg width="185" height="51" viewBox="0 0 185 51" fill="none" xmlns="http://www.w3.org/2000/svg">
<path d="M0.907976 16.9524C3.60123 9.1996 9.82356 4.55235 16.5437 0.867245C18.3714 -0.135758 21.2838 -0.247203 23.3195 0.421466C28.1488 1.98169 32.7626 4.25888 37.4879 6.1683C42.2132 8.07773 45.3745 6.39862 43.9034 8.31548C40.0028 13.3788 34.7538 14.9539 28.9401 12.2941C26.2765 11.0719 23.7393 9.58966 21.0275 8.46035C16.6068 6.60294 12.1119 6.82583 8.13703 10.1989C3.71639 13.9509 1.94441 18.795 3.41177 24.5233C5.20232 31.4997 10.0316 35.8163 16.41 38.5616C24.0216 41.8307 31.7262 41.162 39.297 38.5616C43.0118 37.2763 45.6382 34.5124 45.6122 30.3295C45.6122 28.4721 45.0513 25.686 43.8217 25.0099C42.2986 24.1778 39.5868 24.5939 37.8036 25.3814C35.0733 26.6147 28.6057 33.2791 21.2764 32.3244C16.7443 31.73 12.9292 26.7522 13.1558 25.0879C13.3341 23.7952 13.4121 25.0879 19.9502 24.1629C24.8686 23.4683 28.4683 19.8017 31.1504 18.1561C36.2248 15.0393 40.5452 15.1842 44.3269 19.7386C51.3256 28.1861 46.7675 40.393 39.323 45.7907C26.4846 55.0777 6.79598 50.2967 1.72524 34.0741C1.48749 33.346 -1.44351 25.0842 0.907976 16.9524Z" fill="#F1E898"/>
<path d="M63.3505 29.9468H61.6677C61.5015 29.9531 61.338 29.9034 61.2034 29.8057C61.0839 29.7068 60.9918 29.5789 60.9359 29.4342L60.0555 27.0307H55.1556L54.2752 29.4342C54.2233 29.5698 54.1361 29.6891 54.0226 29.7797C53.8894 29.8813 53.7258 29.935 53.5582 29.932H51.8457L56.4855 18.1411H58.7144L63.3505 29.9468ZM59.476 25.489L58.042 21.5662C57.9715 21.3916 57.8972 21.1947 57.8191 20.9458C57.7411 20.6969 57.6668 20.448 57.5925 20.1731C57.522 20.448 57.4477 20.7081 57.3734 20.9495C57.2991 21.191 57.2248 21.4027 57.1505 21.581L55.724 25.4965L59.476 25.489Z" fill="#F1E898"/>
<path d="M72.4741 19.9577H68.919V29.9469H66.7235V19.9577H63.1536V18.156H72.4592L72.4741 19.9577Z" fill="#F1E898"/>
<path d="M77.0395 19.902V23.171H81.1666V24.8613H77.0395V28.2046H82.2737V29.9469H74.844V18.156H82.2737V19.902H77.0395Z" fill="#F1E898"/>
<path d="M94.9712 18.156V29.9468H93.8567C93.706 29.9527 93.5559 29.9235 93.4184 29.8614C93.2859 29.7906 93.1705 29.6917 93.0803 29.5716L86.9286 21.7111C86.962 22.0825 86.9769 22.402 86.9769 22.7066V29.9468H85.0452V18.156H86.1856C86.2647 18.1497 86.3442 18.1497 86.4234 18.156C86.4865 18.1609 86.5481 18.1773 86.6054 18.2043C86.6604 18.2303 86.7106 18.2655 86.754 18.3083C86.8127 18.3664 86.8673 18.4284 86.9174 18.494L93.0952 26.3992C93.0952 26.2097 93.0655 26.0277 93.0543 25.8382C93.0432 25.6488 93.0543 25.4668 93.0543 25.3256V18.156H94.9712Z" fill="#F1E898"/>
<path d="M108.352 18.156V29.9469H106.149V24.7944H100.614V29.9469H98.4111V18.156H100.614V23.2305H106.149V18.156H108.352Z" fill="#F1E898"/>
<path d="M113.991 29.9469H111.792V18.156H113.991V29.9469Z" fill="#F1E898"/>
<path d="M119.645 19.902V23.171H123.768V24.8613H119.645V28.2046H124.879V29.9469H117.449V18.156H124.879V19.902H119.645Z" fill="#F1E898"/>
<path d="M134.542 28.1378V29.9469H127.636V18.156H129.827V28.1378H134.542Z" fill="#F1E898"/>
<path d="M149.709 18.1561V29.9469H147.777V22.3315C147.777 22.0269 147.777 21.7 147.826 21.3471L144.263 28.0338C144.196 28.1809 144.087 28.3049 143.949 28.3901C143.812 28.4754 143.652 28.5181 143.491 28.513H143.179C143.017 28.5181 142.857 28.4754 142.72 28.3901C142.582 28.3049 142.473 28.1809 142.406 28.0338L138.802 21.3137C138.802 21.492 138.832 21.6852 138.843 21.8449C138.854 22.0046 138.843 22.1792 138.843 22.3241V29.9469H136.912V18.1561H138.565C138.649 18.1517 138.733 18.1517 138.817 18.1561C138.884 18.1592 138.949 18.173 139.011 18.1969C139.07 18.2192 139.123 18.2548 139.167 18.3009C139.219 18.361 139.264 18.4271 139.3 18.4978L142.829 25.0434C142.922 25.218 143.008 25.3963 143.086 25.582C143.164 25.7677 143.242 25.9535 143.32 26.1541C143.394 25.9535 143.476 25.7566 143.557 25.5709C143.639 25.3851 143.725 25.1994 143.817 25.0285L147.298 18.4978C147.335 18.4261 147.381 18.3599 147.436 18.3009C147.481 18.2553 147.535 18.2199 147.595 18.1969C147.657 18.1734 147.723 18.1596 147.789 18.1561C147.873 18.1517 147.957 18.1517 148.041 18.1561H149.709Z" fill="#F1E898"/>
<path d="M159.427 20.3032C159.375 20.3995 159.305 20.4842 159.219 20.5521C159.137 20.6035 159.041 20.6294 158.944 20.6264C158.811 20.6202 158.682 20.5764 158.573 20.5001C158.443 20.4184 158.283 20.3218 158.097 20.2215C157.89 20.1088 157.674 20.0143 157.451 19.9391C157.167 19.8493 156.871 19.8066 156.574 19.8128C156.302 19.8078 156.032 19.8454 155.772 19.9243C155.562 19.9861 155.368 20.0898 155.2 20.2289C155.047 20.3547 154.928 20.5152 154.85 20.697C154.775 20.8872 154.737 21.0903 154.739 21.2951C154.731 21.5466 154.812 21.7929 154.969 21.9897C155.141 22.1872 155.35 22.3477 155.586 22.4615C155.867 22.6024 156.159 22.7205 156.459 22.8144C156.786 22.9184 157.12 23.0262 157.462 23.145C157.803 23.2614 158.138 23.3965 158.465 23.55C158.784 23.7059 159.079 23.9087 159.338 24.1518C159.598 24.3977 159.807 24.6933 159.951 25.021C160.117 25.4156 160.197 25.8412 160.185 26.2692C160.186 26.7773 160.093 27.2812 159.91 27.7551C159.735 28.2165 159.463 28.6347 159.111 28.981C158.745 29.3375 158.308 29.6145 157.83 29.7946C157.274 30.0028 156.684 30.1037 156.091 30.0918C155.717 30.0919 155.344 30.0558 154.977 29.984C154.618 29.9126 154.267 29.8069 153.929 29.6683C153.599 29.5376 153.283 29.3745 152.985 29.1816C152.702 28.997 152.44 28.7828 152.202 28.5427L152.855 27.4951C152.911 27.4173 152.984 27.3526 153.067 27.3056C153.15 27.2547 153.245 27.2277 153.342 27.2276C153.503 27.2365 153.658 27.2949 153.784 27.3948C153.94 27.5062 154.13 27.6288 154.345 27.7663C154.588 27.9135 154.844 28.0379 155.11 28.1378C155.447 28.2552 155.802 28.3118 156.158 28.3049C156.679 28.3381 157.194 28.1796 157.607 27.8592C157.783 27.698 157.92 27.4997 158.009 27.2786C158.099 27.0575 158.138 26.8193 158.123 26.5813C158.131 26.3143 158.049 26.0524 157.889 25.8383C157.72 25.6327 157.51 25.4645 157.272 25.3442C156.993 25.2031 156.701 25.0899 156.399 25.0062C156.076 24.9133 155.742 24.813 155.408 24.7053C155.068 24.5966 154.735 24.4663 154.412 24.3152C154.091 24.1653 153.796 23.9646 153.539 23.7208C153.273 23.4599 153.064 23.1477 152.922 22.8033C152.758 22.3694 152.679 21.9075 152.692 21.4436C152.694 21.0062 152.783 20.5735 152.955 20.1714C153.128 19.7693 153.379 19.4061 153.695 19.1033C154.045 18.7789 154.455 18.5264 154.902 18.3603C155.428 18.1615 155.986 18.0644 156.548 18.0743C157.204 18.0669 157.856 18.1776 158.472 18.4012C159.024 18.6033 159.529 18.914 159.958 19.3151L159.427 20.3032Z" fill="#F1E898"/>
<path d="M165.1 23.0967H165.616C165.791 23.1031 165.965 23.0741 166.129 23.0113C166.268 22.9545 166.389 22.8607 166.478 22.7401L169.732 18.6204C169.843 18.4645 169.99 18.3372 170.159 18.2489C170.339 18.1737 170.533 18.1382 170.728 18.1449H172.619L168.655 23.0559C168.458 23.3213 168.204 23.5396 167.912 23.6948C168.088 23.7576 168.253 23.8493 168.399 23.966C168.555 24.1005 168.692 24.2554 168.807 24.4266L172.894 29.9469H170.962C170.762 29.9586 170.561 29.9217 170.379 29.8391C170.246 29.7591 170.135 29.6482 170.055 29.516L166.712 25.1622C166.619 25.0258 166.491 24.9178 166.341 24.8501C166.153 24.7821 165.953 24.7518 165.754 24.761H165.059V29.9617H162.867V18.156H165.059L165.1 23.0967Z" fill="#F1E898"/>
<path d="M185 29.9468H183.306C183.14 29.9531 182.976 29.9034 182.842 29.8057C182.72 29.7081 182.626 29.5799 182.571 29.4342L181.69 27.0307H176.827L175.947 29.4342C175.899 29.5716 175.811 29.6918 175.694 29.7797C175.562 29.8835 175.398 29.9375 175.23 29.932H173.484L178.124 18.1411H180.353L185 29.9468ZM181.129 25.489L179.692 21.5662C179.621 21.3916 179.55 21.1947 179.472 20.9458C179.394 20.6969 179.32 20.448 179.246 20.1731C179.175 20.448 179.101 20.7081 179.023 20.9495C178.945 21.191 178.874 21.4027 178.804 21.581L177.377 25.489H181.129Z" fill="#F1E898"/>
</svg>
