<svg width="36" height="36" viewBox="0 0 36 36" fill="none" xmlns="http://www.w3.org/2000/svg">
<path fill-rule="evenodd" clip-rule="evenodd" d="M18 36C27.9411 36 36 27.9411 36 18C36 8.05887 27.9411 0 18 0C8.05887 0 0 8.05887 0 18C0 27.9411 8.05887 36 18 36ZM29.4982 11.6979C29.3625 11.1761 29.0951 10.6999 28.7227 10.3169C28.3503 9.93394 27.8861 9.65762 27.3764 9.51561C25.5 9 18 9 18 9C18 9 10.5 9 8.62364 9.51561C8.11393 9.65762 7.64966 9.93394 7.27729 10.3169C6.90492 10.6999 6.63751 11.1761 6.50182 11.6979C6 13.6238 6 17.64 6 17.64C6 17.64 6 21.6562 6.50182 23.5821C6.63751 24.1039 6.90492 24.5801 7.27729 24.9631C7.64966 25.3461 8.11393 25.6224 8.62364 25.7644C10.5 26.28 18 26.28 18 26.28C18 26.28 25.5 26.28 27.3764 25.7644C27.8861 25.6224 28.3503 25.3461 28.7227 24.9631C29.0951 24.5801 29.3625 24.1039 29.4982 23.5821C30 21.6562 30 17.64 30 17.64C30 17.64 30 13.6238 29.4982 11.6979ZM15.5455 21.287L21.8182 17.64L15.5455 13.9931V21.287Z" fill="#FAF2F0"/>
</svg>
