<svg fill="none" height="290" viewBox="0 0 1440 290" width="1440" xmlns="http://www.w3.org/2000/svg"><path clip-rule="evenodd" d="m1555.81 28.3732 49.19-10.5547v102.4015 45.366 123.992l-49.19-12.097c-49.2-12.097-147.59-36.291-245.98-24.194-32.79 4.032-65.59 9.854-98.39 15.676-65.59 11.643-131.18 23.286-196.77 20.615-98.392-4.31-188.691-11.795-287.08-28.201-98.389-16.104-157.201-20.187-255.59 0-98.389 19.884-244.444 36.518-342.833 24.194-95.0301-11.465-190.0599-49.944-240.764-70.475-1.792-.725-3.529-1.429-5.209-2.107l-49.194-20.187v-27.217-63.328l49.194-17.6137c1.68-.5923 3.417-1.2059 5.209-1.8391 50.7041-17.9132 145.7338-51.4863 240.764-61.4896 98.389-10.7527 217.202-16.664 315.59.6854 8.899 1.5931 17.798 3.2147 26.696 4.8363 89.491 16.3079 178.981 32.6158 268.471 19.8356 38.297-5.572 73.5-13.2768 108.018-20.8316 54.16-11.854 106.633-23.33868 166.728-25.635206 60.96-2.166394 140.42 13.219306 215.45 27.748306 46.06 8.9188 90.46 17.5147 127.88 21.5294 79.71 8.5505 127.8-3.6794 169.35-14.2439 9.73-2.4764 19.11-4.8614 28.46-6.8657z" fill="#36717b" fill-rule="evenodd"/></svg>